{
  "accessors": [
    {
      "bufferView": 2,
      "componentType": 5126,
      "count": 101,
      "max": [
        0.18971557915210724,
        1.9410824775695801,
        0.32022812962532043
      ],
      "min": [
        -0.18971557915210724,
        0.74343729019165039,
        -1.365970253944397
      ],
      "type": "VEC3"
    },
    {
      "bufferView": 2,
      "byteOffset": 1212,
      "componentType": 5126,
      "count": 101,
      "max": [
        1,
        0.9705193042755127,
        0.99999606609344482
      ],
      "min": [
        -1,
        -0.98501211404800415,
        -1
      ],
      "type": "VEC3"
    },
    {
      "bufferView": 3,
      "componentType": 5126,
      "count": 101,
      "max": [
        1,
        0.99655860662460327,
        1,
        1
      ],
      "min": [
        -1,
        -1,
        -1,
        -1
      ],
      "type": "VEC4"
    },
    {
      "bufferView": 1,
      "componentType": 5126,
      "count": 101,
      "max": [
        0.99029445648193359,
        0.99709504842758179
      ],
      "min": [
        0.038324389606714249,
        0.0060313907451927662
      ],
      "type": "VEC2"
    },
    {
      "bufferView": 0,
      "componentType": 5125,
      "count": 222,
      "max": [
        100
      ],
      "min": [
        0
      ],
      "type": "SCALAR"
    },
    {
      "bufferView": 2,
      "byteOffset": 2424,
      "componentType": 5126,
      "count": 512,
      "max": [
        0.25383812189102173,
        1.8865194320678711,
        1.1854808330535889
      ],
      "min": [
        -0.25383812189102173,
        -1.8057452440261841,
        0.38284379243850708
      ],
      "type": "VEC3"
    },
    {
      "bufferView": 2,
      "byteOffset": 8568,
      "componentType": 5126,
      "count": 512,
      "max": [
        1,
        1,
        1
      ],
      "min": [
        -1,
        -1,
        -1
      ],
      "type": "VEC3"
    },
    {
      "bufferView": 3,
      "byteOffset": 1616,
      "componentType": 5126,
      "count": 512,
      "max": [
        1,
        1,
        1,
        1
      ],
      "min": [
        -1,
        -1,
        -1,
        -1
      ],
      "type": "VEC4"
    },
    {
      "bufferView": 1,
      "byteOffset": 808,
      "componentType": 5126,
      "count": 512,
      "max": [
        0.99806517362594604,
        0.99811035394668579
      ],
      "min": [
        0.0034988538827747107,
        0.0026713171973824501
      ],
      "type": "VEC2"
    },
    {
      "bufferView": 0,
      "byteOffset": 888,
      "componentType": 5125,
      "count": 1488,
      "max": [
        511
      ],
      "min": [
        0
      ],
      "type": "SCALAR"
    },
    {
      "bufferView": 2,
      "byteOffset": 14712,
      "componentType": 5126,
      "count": 130,
      "max": [
        0.044935606420040131,
        2.0202176570892334,
        0.86341166496276855
      ],
      "min": [
        -0.044935606420040131,
        1.6630843877792358,
        0.28687438368797302
      ],
      "type": "VEC3"
    },
    {
      "bufferView": 2,
      "byteOffset": 16272,
      "componentType": 5126,
      "count": 130,
      "max": [
        1,
        0.97273731231689453,
        0.99766457080841064
      ],
      "min": [
        -1,
        -0.99810171127319336,
        -0.87636470794677734
      ],
      "type": "VEC3"
    },
    {
      "bufferView": 3,
      "byteOffset": 9808,
      "componentType": 5126,
      "count": 130,
      "max": [
        1,
        0,
        1,
        1
      ],
      "min": [
        -1,
        -0.99810200929641724,
        -1,
        -1
      ],
      "type": "VEC4"
    },
    {
      "bufferView": 1,
      "byteOffset": 4904,
      "componentType": 5126,
      "count": 130,
      "max": [
        0.96661502122879028,
        0.98467451333999634
      ],
      "min": [
        0.14881223440170288,
        0.50833570957183838
      ],
      "type": "VEC2"
    },
    {
      "bufferView": 0,
      "byteOffset": 6840,
      "componentType": 5125,
      "count": 258,
      "max": [
        129
      ],
      "min": [
        0
      ],
      "type": "SCALAR"
    },
    {
      "bufferView": 2,
      "byteOffset": 17832,
      "componentType": 5126,
      "count": 338,
      "max": [
        0.30457040667533875,
        1.5900032520294189,
        0.92026525735855103
      ],
      "min": [
        -0.30457040667533875,
        1.055554986000061,
        0.67761522531509399
      ],
      "type": "VEC3"
    },
    {
      "bufferView": 2,
      "byteOffset": 21888,
      "componentType": 5126,
      "count": 338,
      "max": [
        1,
        1,
        1
      ],
      "min": [
        -1,
        -0.98431277275085449,
        -1
      ],
      "type": "VEC3"
    },
    {
      "bufferView": 3,
      "byteOffset": 11888,
      "componentType": 5126,
      "count": 338,
      "max": [
        1,
        0.99406605958938599,
        0.99682056903839111,
        1
      ],
      "min": [
        -1,
        -0.88709872961044312,
        -0.9088549017906189,
        -1
      ],
      "type": "VEC4"
    },
    {
      "bufferView": 1,
      "byteOffset": 5944,
      "componentType": 5126,
      "count": 338,
      "max": [
        0.99697303771972656,
        0.99907767772674561
      ],
      "min": [
        0.001346469041891396,
        0.12071782350540161
      ],
      "type": "VEC2"
    },
    {
      "bufferView": 0,
      "byteOffset": 7872,
      "componentType": 5125,
      "count": 807,
      "max": [
        337
      ],
      "min": [
        0
      ],
      "type": "SCALAR"
    },
    {
      "bufferView": 2,
      "byteOffset": 25944,
      "componentType": 5126,
      "count": 61,
      "max": [
        0.06171107292175293,
        0.54920417070388794,
        0.24112206697463989
      ],
      "min": [
        -0.06171107292175293,
        0.26215976476669312,
        -0.10116229206323624
      ],
      "type": "VEC3"
    },
    {
      "bufferView": 2,
      "byteOffset": 26676,
      "componentType": 5126,
      "count": 61,
      "max": [
        1,
        0.91834616661071777,
        0.73746609687805176
      ],
      "min": [
        -1,
        -0.99997580051422119,
        -0.94180011749267578
      ],
      "type": "VEC3"
    },
    {
      "bufferView": 3,
      "byteOffset": 17296,
      "componentType": 5126,
      "count": 61,
      "max": [
        0.99194228649139404,
        0.88101232051849365,
        0.99997586011886597,
        1
      ],
      "min": [
        -0.99194228649139404,
        -0.82727694511413574,
        -0.47437858581542969,
        -1
      ],
      "type": "VEC4"
    },
    {
      "bufferView": 1,
      "byteOffset": 8648,
      "componentType": 5126,
      "count": 61,
      "max": [
        0.98829346895217896,
        0.99162894487380981
      ],
      "min": [
        0.14782498776912689,
        0.1199386790394783
      ],
      "type": "VEC2"
    },
    {
      "bufferView": 0,
      "byteOffset": 11100,
      "componentType": 5125,
      "count": 132,
      "max": [
        60
      ],
      "min": [
        0
      ],
      "type": "SCALAR"
    },
    {
      "bufferView": 2,
      "byteOffset": 27408,
      "componentType": 5126,
      "count": 1739,
      "max": [
        0.26500213146209717,
        2.243635892868042,
        1.1779119968414307
      ],
      "min": [
        -0.26500213146209717,
        -2.3239536285400391,
        -1.250417947769165
      ],
      "type": "VEC3"
    },
    {
      "bufferView": 2,
      "byteOffset": 48276,
      "componentType": 5126,
      "count": 1739,
      "max": [
        1,
        1,
        1
      ],
      "min": [
        -1,
        -1,
        -1
      ],
      "type": "VEC3"
    },
    {
      "bufferView": 3,
      "byteOffset": 18272,
      "componentType": 5126,
      "count": 1739,
      "max": [
        0.99999988079071045,
        1,
        1,
        1
      ],
      "min": [
        -0.99999988079071045,
        -1,
        -1,
        -1
      ],
      "type": "VEC4"
    },
    {
      "bufferView": 1,
      "byteOffset": 9136,
      "componentType": 5126,
      "count": 1739,
      "max": [
        0.99928009510040283,
        0.99231308698654175
      ],
      "min": [
        0.00090233708033338189,
        0.00072748400270938873
      ],
      "type": "VEC2"
    },
    {
      "bufferView": 0,
      "byteOffset": 11628,
      "componentType": 5125,
      "count": 4305,
      "max": [
        1738
      ],
      "min": [
        0
      ],
      "type": "SCALAR"
    }
  ],
  "asset": {
    "extras": {
      "author": "Sir_Numb (https://sketchfab.com/sirnumb)",
      "license": "CC-BY-4.0 (http://creativecommons.org/licenses/by/4.0/)",
      "source": "https://sketchfab.com/3d-models/deagle-eagle-50-ae-03a80017797e4aa1908feab8ed40f212",
      "title": "Deagle Eagle .50 AE"
    },
    "generator": "Sketchfab-10.3.0",
    "version": "2.0"
  },
  "bufferViews": [
    {
      "buffer": 0,
      "byteLength": 28848,
      "byteOffset": 0,
      "name": "floatBufferViews",
      "target": 34963
    },
    {
      "buffer": 0,
      "byteLength": 23048,
      "byteOffset": 28848,
      "byteStride": 8,
      "name": "floatBufferViews",
      "target": 34962
    },
    {
      "buffer": 0,
      "byteLength": 69144,
      "byteOffset": 51896,
      "byteStride": 12,
      "name": "floatBufferViews",
      "target": 34962
    },
    {
      "buffer": 0,
      "byteLength": 46096,
      "byteOffset": 121040,
      "byteStride": 16,
      "name": "floatBufferViews",
      "target": 34962
    }
  ],
  "buffers": [
    {
      "byteLength": 167136,
      "uri": "scene.bin"
    }
  ],
  "images": [
    {
      "uri": "textures/Scene_-_Root_baseColor.jpeg"
    },
    {
      "uri": "textures/Scene_-_Root_metallicRoughness.png"
    },
    {
      "uri": "textures/Scene_-_Root_normal.png"
    }
  ],
  "materials": [
    {
      "doubleSided": true,
      "name": "Scene_-_Root",
      "normalTexture": {
        "index": 2,
        "scale": 1,
        "texCoord": 0
      },
      "occlusionTexture": {
        "index": 1,
        "strength": 1,
        "texCoord": 0
      },
      "pbrMetallicRoughness": {
        "baseColorFactor": [
          1,
          1,
          1,
          1
        ],
        "baseColorTexture": {
          "index": 0,
          "texCoord": 0
        },
        "metallicFactor": 1,
        "metallicRoughnessTexture": {
          "index": 1,
          "texCoord": 0
        },
        "roughnessFactor": 1
      }
    }
  ],
  "meshes": [
    {
      "name": "Cube.002__0",
      "primitives": [
        {
          "attributes": {
            "NORMAL": 1,
            "POSITION": 0,
            "TANGENT": 2,
            "TEXCOORD_0": 3
          },
          "indices": 4,
          "material": 0,
          "mode": 4
        }
      ]
    },
    {
      "name": "Cube.004__0",
      "primitives": [
        {
          "attributes": {
            "NORMAL": 6,
            "POSITION": 5,
            "TANGENT": 7,
            "TEXCOORD_0": 8
          },
          "indices": 9,
          "material": 0,
          "mode": 4
        }
      ]
    },
    {
      "name": "Cube.006__0",
      "primitives": [
        {
          "attributes": {
            "NORMAL": 11,
            "POSITION": 10,
            "TANGENT": 12,
            "TEXCOORD_0": 13
          },
          "indices": 14,
          "material": 0,
          "mode": 4
        }
      ]
    },
    {
      "name": "Cylinder.002__0",
      "primitives": [
        {
          "attributes": {
            "NORMAL": 16,
            "POSITION": 15,
            "TANGENT": 17,
            "TEXCOORD_0": 18
          },
          "indices": 19,
          "material": 0,
          "mode": 4
        }
      ]
    },
    {
      "name": "Cube__0",
      "primitives": [
        {
          "attributes": {
            "NORMAL": 21,
            "POSITION": 20,
            "TANGENT": 22,
            "TEXCOORD_0": 23
          },
          "indices": 24,
          "material": 0,
          "mode": 4
        }
      ]
    },
    {
      "name": "Cube.005__0",
      "primitives": [
        {
          "attributes": {
            "NORMAL": 26,
            "POSITION": 25,
            "TANGENT": 27,
            "TEXCOORD_0": 28
          },
          "indices": 29,
          "material": 0,
          "mode": 4
        }
      ]
    }
  ],
  "nodes": [
    {
      "children": [
        1
      ],
      "name": "RootNode (gltf orientation matrix)",
      "rotation": [
        -0.70710678118654746,
        -0,
        -0,
        0.70710678118654757
      ]
    },
    {
      "children": [
        2
      ],
      "name": "RootNode (model correction matrix)"
    },
    {
      "children": [
        3
      ],
      "matrix": [
        1,
        0,
        0,
        0,
        0,
        0,
        1,
        0,
        0,
        -1,
        0,
        0,
        0,
        0,
        0,
        1
      ],
      "name": "d719e5d404d4401ab8dafe361ea986e5.fbx"
    },
    {
      "children": [
        4,
        6,
        8,
        10,
        12,
        14
      ],
      "name": "RootNode"
    },
    {
      "children": [
        5
      ],
      "matrix": [
        100,
        0,
        0,
        0,
        0,
        -1.6292067939183141e-05,
        -99.999999999998678,
        0,
        0,
        99.999999999998678,
        -1.6292067939183141e-05,
        0,
        0,
        0,
        0,
        1
      ],
      "name": "Cube.002"
    },
    {
      "mesh": 0,
      "name": "Cube.002__0"
    },
    {
      "children": [
        7
      ],
      "matrix": [
        100,
        0,
        0,
        0,
        0,
        -1.6292067939183141e-05,
        -99.999999999998678,
        0,
        0,
        99.999999999998678,
        -1.6292067939183141e-05,
        0,
        0,
        0,
        0,
        1
      ],
      "name": "Cube.004"
    },
    {
      "mesh": 1,
      "name": "Cube.004__0"
    },
    {
      "children": [
        9
      ],
      "matrix": [
        100,
        0,
        0,
        0,
        0,
        -1.6292067939183141e-05,
        -99.999999999998678,
        0,
        0,
        99.999999999998678,
        -1.6292067939183141e-05,
        0,
        0,
        0,
        0,
        1
      ],
      "name": "Cube.006"
    },
    {
      "mesh": 2,
      "name": "Cube.006__0"
    },
    {
      "children": [
        11
      ],
      "matrix": [
        100,
        0,
        0,
        0,
        0,
        -1.6292067939183141e-05,
        -99.999999999998678,
        0,
        0,
        99.999999999998678,
        -1.6292067939183141e-05,
        0,
        0,
        0,
        0,
        1
      ],
      "name": "Cylinder.002"
    },
    {
      "mesh": 3,
      "name": "Cylinder.002__0"
    },
    {
      "children": [
        13
      ],
      "matrix": [
        100,
        0,
        0,
        0,
        0,
        -1.6292067939183141e-05,
        -99.999999999998678,
        0,
        0,
        99.999999999998678,
        -1.6292067939183141e-05,
        0,
        0,
        0,
        0,
        1
      ],
      "name": "Cube"
    },
    {
      "mesh": 4,
      "name": "Cube__0"
    },
    {
      "children": [
        15
      ],
      "matrix": [
        100,
        0,
        0,
        0,
        0,
        -1.6292067939183141e-05,
        -99.999999999998678,
        0,
        0,
        99.999999999998678,
        -1.6292067939183141e-05,
        0,
        0,
        0,
        0,
        1
      ],
      "name": "Cube.005"
    },
    {
      "mesh": 5,
      "name": "Cube.005__0"
    }
  ],
  "samplers": [
    {
      "magFilter": 9729,
      "minFilter": 9987,
      "wrapS": 10497,
      "wrapT": 10497
    }
  ],
  "scene": 0,
  "scenes": [
    {
      "name": "OSG_Scene",
      "nodes": [
        0
      ]
    }
  ],
  "textures": [
    {
      "sampler": 0,
      "source": 0
    },
    {
      "sampler": 0,
      "source": 1
    },
    {
      "sampler": 0,
      "source": 2
    }
  ]
}

